<svg xmlns="http://www.w3.org/2000/svg" viewBox="-40 -80 2300 1293.75" font-family="'Host Grotesk','Helvetica Neue',Arial,sans-serif" xmlns:c2pa="http://c2pa.org/manifest"><metadata><c2pa:manifest>AAAWgmp1bWIAAAAeanVtZGMycGEAEQAQgAAAqgA4m3EDYzJwYQAAABZcanVtYgAAAEdqdW1kYzJtYQARABCAAACqADibcQN1cm46YzJwYTpmYjExZmJjNC03YjY0LTQ4ZDQtODc2MS01NTllYzdhZjM5ZjIAAAADl2p1bWIAAAApanVtZGMyYXMAEQAQgAAAqgA4m3EDYzJwYS5hc3NlcnRpb25zAAAAALxqdW1iAAAARGp1bWRjYm9yABEAEIAAAKoAOJtxE2MycGEuaW5ncmVkaWVudC52MwAAAAAYYzJzaN/mv03LgO1D+k+K0R7MlmwAAABwY2JvcqNpZGM6Zm9ybWF0bWltYWdlL3N2Zyt4bWxqaW5zdGFuY2VJRHgseG1wOmlpZDplNTc4N2ZlNC0zZjM4LTRhMWUtOTEzOS0yMjVhYzk2MmVhN2NscmVsYXRpb25zaGlwaHBhcmVudE9mAAAB4mp1bWIAAABBanVtZGNib3IAEQAQgAAAqgA4m3ETYzJwYS5hY3Rpb25zLnYyAAAAABhjMnNoHbY8LLsj7F38z83C0bOBfgAAAZljYm9yomdhY3Rpb25zgqJmYWN0aW9ua2MycGEub3BlbmVkanBhcmFtZXRlcnOha2luZ3JlZGllbnRzgaJjdXJseC1zZWxmI2p1bWJmPWMycGEuYXNzZXJ0aW9ucy9jMnBhLmluZ3JlZGllbnQudjNkaGFzaFggm9J/kreS1nnk6rQL228+naYdIdCzZnm4mEurcEig+AGkZmFjdGlvbngdY29tLmFudGhyb3BpYy5jbGF1ZGUucHJvdmlkZWRqcGFyYW1ldGVyc6F4H2NvbS5hbnRocm9waWMub3JpZ2luLWNvbmZpZGVuY2VndW5rbm93bmtkZXNjcmlwdGlvbnhmQ2xhdWRlIHByb3ZpZGVkIHRoaXMgZmlsZSBhdCB0aGUgcmVxdWVzdCBvZiBhIHVzZXIgYW5kIG1heSBoYXZlIGNyZWF0ZWQgb3IgbW9kaWZpZWQgdGhlIGZpbGUgY29udGVudHMubXNvZnR3YXJlQWdlbnShZG5hbWVmQ2xhdWRlcmFsbEFjdGlvbnNJbmNsdWRlZPUAAADIanVtYgAAAEBqdW1kY2JvcgARABCAAACqADibcRNjMnBhLmhhc2guZGF0YQAAAAAYYzJzaBlvnCdgps/aOBiucZCH20QAAACAY2JvcqVjYWxnZnNoYTI1NmNwYWRNAAAAAAAAAAAAAAAAAGRoYXNoWCDaPd0HW0Iqab3V6OgpU0+fpeKczF0mb2/+wzQEA9We4mRuYW1lbmp1bWJmIG1hbmlmZXN0amV4Y2x1c2lvbnOBomVzdGFydBjFZmxlbmd0aBkeBAAAAj5qdW1iAAAAJ2p1bWRjMmNsABEAEIAAAKoAOJtxA2MycGEuY2xhaW0udjIAAAACD2Nib3KlY2FsZ2ZzaGEyNTZpc2lnbmF0dXJleE1zZWxmI2p1bWJmPS9jMnBhL3VybjpjMnBhOmZiMTFmYmM0LTdiNjQtNDhkNC04NzYxLTU1OWVjN2FmMzlmMi9jMnBhLnNpZ25hdHVyZWppbnN0YW5jZUlEeCx4bXA6aWlkOmUxOWU3YTExLTdlZWYtNGRjZi1hYmU2LWU1ZjJlNjM4YmRmOXJjcmVhdGVkX2Fzc2VydGlvbnODomN1cmx4LXNlbGYjanVtYmY9YzJwYS5hc3NlcnRpb25zL2MycGEuaW5ncmVkaWVudC52M2RoYXNoWCCb0n+St5LWeeTqtAvbbz6dph0h0LNmebiYS6twSKD4AaJjdXJseCpzZWxmI2p1bWJmPWMycGEuYXNzZXJ0aW9ucy9jMnBhLmFjdGlvbnMudjJkaGFzaFggM5NLmpi/7flGXD8XkekEq5ILUyVzKc2AiBlEPaUPsgmiY3VybHgpc2VsZiNqdW1iZj1jMnBhLmFzc2VydGlvbnMvYzJwYS5oYXNoLmRhdGFkaGFzaFgghdTSI8ozDLMgISnXHzT5k18affFMpRS0rh1tMSjnjZd0Y2xhaW1fZ2VuZXJhdG9yX2luZm+jZG5hbWVvQW50aHJvcGljIEZpbGVzZ3ZlcnNpb25lMS4wLjBrc3BlY1ZlcnNpb25lMi40LjAAABA4anVtYgAAAChqdW1kYzJjcwARABCAAACqADibcQNjMnBhLnNpZ25hdHVyZQAAABAIY2JvctKEWQISogEmGCFZAgowggIGMIIBjaADAgECAhRA5aAK7sI50L64g/oGQgU9Z1UTADAKBggqhkjOPQQDAzBJMRcwFQYDVQQKEw5BbnRocm9waWMsIFBCQzEuMCwGA1UEAxMlQW50aHJvcGljIENvbnRlbnQgQ3JlZGVudGlhbHMgUm9vdCBDQTAeFw0yNjA4MDcxODQzNTZaFw0yODA4MDYxOTQzNTZaMEQxFzAVBgNVBAoTDkFudGhyb3BpYywgUEJDMSkwJwYDVQQDEyBBbnRocm9waWMgQ2xhdWRlIENvbnRlbnQgU2lnbmluZzBZMBMGByqGSM49AgEGCCqGSM49AwEHA0IABJh6CmvLUBgFFNU0vUKlOVtE6djd17L5SuwX0LemFisBM3dkd/3cyjxFA3Qo5S46fX0/ihY0VZ7mfb9KF703t5OjWDBWMA4GA1UdDwEB/wQEAwIHgDAVBgNVHSUEDjAMBgorBgEEAYPoXgIBMAwGA1UdEwEB/wQCMAAwHwYDVR0jBBgwFoAUzlHiBIFOZFsj+OPEz5o+nMHXXMIwCgYIKoZIzj0EAwMDZwAwZAIwMXMdFJ4BetLLVY7ORuE9noqbbAZOZn/aArXyTwFAZfKrPzxF2vPoJNf1+UCdg1XGAjBwX1zd9WGqYkqmL5SFqw1QySjr1zJfpJM9+1rdDwSPLMOPOjKuiXjoU/pUUeG9RwmhY3BhZFkNngAAAAAAAAAAAAAAAAAAAAAAAAAAAAAAAAAAAAAAAAAAAAAAAAAAAAAAAAAAAAAAAAAAAAAAAAAAAAAAAAAAAAAAAAAAAAAAAAAAAAAAAAAAAAAAAAAAAAAAAAAAAAAAAAAAAAAAAAAAAAAAAAAAAAAAAAAAAAAAAAAAAAAAAAAAAAAAAAAAAAAAAAAAAAAAAAAAAAAAAAAAAAAAAAAAAAAAAAAAAAAAAAAAAAAAAAAAAAAAAAAAAAAAAAAAAAAAAAAAAAAAAAAAAAAAAAAAAAAAAAAAAAAAAAAAAAAAAAAAAAAAAAAAAAAAAAAAAAAAAAAAAAAAAAAAAAAAAAAAAAAAAAAAAAAAAAAAAAAAAAAAAAAAAAAAAAAAAAAAAAAAAAAAAAAAAAAAAAAAAAAAAAAAAAAAAAAAAAAAAAAAAAAAAAAAAAAAAAAAAAAAAAAAAAAAAAAAAAAAAAAAAAAAAAAAAAAAAAAAAAAAAAAAAAAAAAAAAAAAAAAAAAAAAAAAAAAAAAAAAAAAAAAAAAAAAAAAAAAAAAAAAAAAAAAAAAAAAAAAAAAAAAAAAAAAAAAAAAAAAAAAAAAAAAAAAAAAAAAAAAAAAAAAAAAAAAAAAAAAAAAAAAAAAAAAAAAAAAAAAAAAAAAAAAAAAAAAAAAAAAAAAAAAAAAAAAAAAAAAAAAAAAAAAAAAAAAAAAAAAAAAAAAAAAAAAAAAAAAAAAAAAAAAAAAAAAAAAAAAAAAAAAAAAAAAAAAAAAAAAAAAAAAAAAAAAAAAAAAAAAAAAAAAAAAAAAAAAAAAAAAAAAAAAAAAAAAAAAAAAAAAAAAAAAAAAAAAAAAAAAAAAAAAAAAAAAAAAAAAAAAAAAAAAAAAAAAAAAAAAAAAAAAAAAAAAAAAAAAAAAAAAAAAAAAAAAAAAAAAAAAAAAAAAAAAAAAAAAAAAAAAAAAAAAAAAAAAAAAAAAAAAAAAAAAAAAAAAAAAAAAAAAAAAAAAAAAAAAAAAAAAAAAAAAAAAAAAAAAAAAAAAAAAAAAAAAAAAAAAAAAAAAAAAAAAAAAAAAAAAAAAAAAAAAAAAAAAAAAAAAAAAAAAAAAAAAAAAAAAAAAAAAAAAAAAAAAAAAAAAAAAAAAAAAAAAAAAAAAAAAAAAAAAAAAAAAAAAAAAAAAAAAAAAAAAAAAAAAAAAAAAAAAAAAAAAAAAAAAAAAAAAAAAAAAAAAAAAAAAAAAAAAAAAAAAAAAAAAAAAAAAAAAAAAAAAAAAAAAAAAAAAAAAAAAAAAAAAAAAAAAAAAAAAAAAAAAAAAAAAAAAAAAAAAAAAAAAAAAAAAAAAAAAAAAAAAAAAAAAAAAAAAAAAAAAAAAAAAAAAAAAAAAAAAAAAAAAAAAAAAAAAAAAAAAAAAAAAAAAAAAAAAAAAAAAAAAAAAAAAAAAAAAAAAAAAAAAAAAAAAAAAAAAAAAAAAAAAAAAAAAAAAAAAAAAAAAAAAAAAAAAAAAAAAAAAAAAAAAAAAAAAAAAAAAAAAAAAAAAAAAAAAAAAAAAAAAAAAAAAAAAAAAAAAAAAAAAAAAAAAAAAAAAAAAAAAAAAAAAAAAAAAAAAAAAAAAAAAAAAAAAAAAAAAAAAAAAAAAAAAAAAAAAAAAAAAAAAAAAAAAAAAAAAAAAAAAAAAAAAAAAAAAAAAAAAAAAAAAAAAAAAAAAAAAAAAAAAAAAAAAAAAAAAAAAAAAAAAAAAAAAAAAAAAAAAAAAAAAAAAAAAAAAAAAAAAAAAAAAAAAAAAAAAAAAAAAAAAAAAAAAAAAAAAAAAAAAAAAAAAAAAAAAAAAAAAAAAAAAAAAAAAAAAAAAAAAAAAAAAAAAAAAAAAAAAAAAAAAAAAAAAAAAAAAAAAAAAAAAAAAAAAAAAAAAAAAAAAAAAAAAAAAAAAAAAAAAAAAAAAAAAAAAAAAAAAAAAAAAAAAAAAAAAAAAAAAAAAAAAAAAAAAAAAAAAAAAAAAAAAAAAAAAAAAAAAAAAAAAAAAAAAAAAAAAAAAAAAAAAAAAAAAAAAAAAAAAAAAAAAAAAAAAAAAAAAAAAAAAAAAAAAAAAAAAAAAAAAAAAAAAAAAAAAAAAAAAAAAAAAAAAAAAAAAAAAAAAAAAAAAAAAAAAAAAAAAAAAAAAAAAAAAAAAAAAAAAAAAAAAAAAAAAAAAAAAAAAAAAAAAAAAAAAAAAAAAAAAAAAAAAAAAAAAAAAAAAAAAAAAAAAAAAAAAAAAAAAAAAAAAAAAAAAAAAAAAAAAAAAAAAAAAAAAAAAAAAAAAAAAAAAAAAAAAAAAAAAAAAAAAAAAAAAAAAAAAAAAAAAAAAAAAAAAAAAAAAAAAAAAAAAAAAAAAAAAAAAAAAAAAAAAAAAAAAAAAAAAAAAAAAAAAAAAAAAAAAAAAAAAAAAAAAAAAAAAAAAAAAAAAAAAAAAAAAAAAAAAAAAAAAAAAAAAAAAAAAAAAAAAAAAAAAAAAAAAAAAAAAAAAAAAAAAAAAAAAAAAAAAAAAAAAAAAAAAAAAAAAAAAAAAAAAAAAAAAAAAAAAAAAAAAAAAAAAAAAAAAAAAAAAAAAAAAAAAAAAAAAAAAAAAAAAAAAAAAAAAAAAAAAAAAAAAAAAAAAAAAAAAAAAAAAAAAAAAAAAAAAAAAAAAAAAAAAAAAAAAAAAAAAAAAAAAAAAAAAAAAAAAAAAAAAAAAAAAAAAAAAAAAAAAAAAAAAAAAAAAAAAAAAAAAAAAAAAAAAAAAAAAAAAAAAAAAAAAAAAAAAAAAAAAAAAAAAAAAAAAAAAAAAAAAAAAAAAAAAAAAAAAAAAAAAAAAAAAAAAAAAAAAAAAAAAAAAAAAAAAAAAAAAAAAAAAAAAAAAAAAAAAAAAAAAAAAAAAAAAAAAAAAAAAAAAAAAAAAAAAAAAAAAAAAAAAAAAAAAAAAAAAAAAAAAAAAAAAAAAAAAAAAAAAAAAAAAAAAAAAAAAAAAAAAAAAAAAAAAAAAAAAAAAAAAAAAAAAAAAAAAAAAAAAAAAAAAAAAAAAAAAAAAAAAAAAAAAAAAAAAAAAAAAAAAAAAAAAAAAAAAAAAAAAAAAAAAAAAAAAAAAAAAAAAAAAAAAAAAAAAAAAAAAAAAAAAAAAAAAAAAAAAAAAAAAAAAAAAAAAAAAAAAAAAAAAAAAAAAAAAAAAAAAAAAAAAAAAAAAAAAAAAAAAAAAAAAAAAAAAAAAAAAAAAAAAAAAAAAAAAAAAAAAAAAAAAAAAAAAAAAAAAAAAAAAAAAAAAAAAAAAAAAAAAAAAAAAAAAAAAAAAAAAAAAAAAAAAAAAAAAAAAAAAAAAAAAAAAAAAAAAAAAAAAAAAAAAAAAAAAAAAAAAAAAAAAAAAAAAAAAAAAAAAAAAAAAAAAAAAAAAAAAAAAAAAAAAAAAAAAAAAAAAAAAAAAAAAAAAAAAAAAAAAAAAAAAAAAAAAAAAAAAAAAAAAAAAAAAAAAAAAAAAAAAAAAAAAAAAAAAAAAAAAAAAAAAAAAAAAAAAAAAAAAAAAAAAAAAAAAAAAAAAAAAAAAAAAAAAAAAAAAAAAAAAAAAAAAAAAAAAAAAAAAAAAAAAAAAAAAAAAAAAAAAAAAAAAAAAAAAAAAAAAAAAAAAAAAAAAAAAAAAAAAAAAAAAAAAAAAAAAAAAAAAAAAAAAAAAAAAAAAAAAAAAAAAAAAAAAAAAAAAAAAAAAAAAAAAAAAAAAAAAAAAAAAAAAAAAAAAAAAAAAAAAAAAAAAAAAAAAAAAAAAAAAAAAAAAAAAAAAAAAAAAAAAAAAAAAAAAAAAAAAAAAAAAAAAAAAAAAAAAAAAAAAAAAAAAAAAAAAAAAAAAAAAAAAAAAAAAAAAAAAAAAAAAAAAAAAAAAAAAAAAAAAAAAAAAAAAAAAAAAAAAAAAAAAAAAAAAAAAAAAAAAAAAAAAAAAAAAAAAAAAAAAAAAAAAAAAAAAAAAAAAAAAAAAAAAAAAAAAAAAAAAAAAAAAAAAAAAAAAAAAAAAAAAAAAAAAAAAAAAAAAAAAAAAAAAAAAAAAAAAAAAAAAAAAAAAAAAAAAAAAAAAAAAAAAAAAAAAAAAAAAAAAAAAAAAAAAAAAAAAAAAAAAAAAAAAAAAAAAAAAAAAAAAAAAAAAAAAAAAAAAAAAAAAAAAAAAAAAAAAAAAAAAAAAAAAAAAAAAAAAAAAAAAAAAAAAAAAAAAAAAAAAAAAAAAAAAAAAAAAAAAAAAAAAAAAAAAAAAAAAAAAAAAAAAAAAAAAAAAAAAAAAAAAAAAAAAAAAAAAAAAAAAAAAAAAAAAAAAAAAAAAAAAAAAAAAAAAAAAAAAAAAAAAAAAAAAAAAAAAAAAAAAAAAAAAAAAAAAAAAAAAAAAAAAAAAAAAAAAAAAAAAAAAAAAAAAAAAAAAAAAAAAAAAAAAAAAAAAAAAAAAAAAAAAAAAAAAAAAAAAAAAAAAAAAAAAAAAAAAAAAAAAAAAAAAAAAAAAAAAAAAAAAAAAAAAAAAAAAAAAAAAAAAAAAAAAAAAAAAAAAAAAAAAAAAAAAAAAAAAAAAAAAAAAAAAAAAAAAAAAAAAAAAAAAAAAAAAAAAAAAAAAAAAAAAAAAAAAAAAAAAAAAAAAAAAAAAAAAAAAAAAAAAAAAAAAAAAAAAAAAAAAAAAAAAAAAAAAAAAAAAPZYQL7unTxiOjeGHOU71vOKDczDaJoqocvXDO7pbOQHExt/Dw7yM36G7aky2gVpa+ar+HWU6ZIUd0j87yQ1PnQQLWo=</c2pa:manifest></metadata>
  
  <defs>
    <g id="pijl-uit">
      <path d="M0 0V6C0 34-16 42-40 42M0 0V6C0 34 16 42 40 42" fill="none" stroke="currentColor" stroke-width="16"></path>
      <path d="M-62 42-38 23V61ZM62 42 38 23V61Z" fill="currentColor"></path>
    </g>
    <g id="pijl-in">
      <path d="M0 6-22 31H22Z" fill="currentColor"></path>
      <path d="M0 29C0 54-14 62-40 62M0 29C0 54 14 62 40 62" fill="none" stroke="currentColor" stroke-width="16"></path>
    </g>
  </defs>

  
  <rect x="-40" y="-80" width="2300" height="1293.75" fill="#E5E6DF"></rect>
  <path d="M135 351 1008 139 1881 351V473H135Z" fill="#F5F5F1"></path>
  <rect x="135" y="473" width="1746" height="345" fill="#FFFFFF"></rect>
  <rect x="135" y="818" width="1746" height="52" fill="#E4E8DC"></rect>

  
  <g fill="#91877A">
    <rect x="118" y="345" width="34" height="533"></rect><rect x="1863" y="345" width="34" height="533"></rect>
    <rect x="118" y="462" width="1779" height="22"></rect>
    <rect x="118" y="812" width="1779" height="8"></rect><rect x="118" y="868" width="1779" height="10"></rect>
    <rect x="578" y="484" width="14" height="328"></rect><rect x="1120" y="484" width="14" height="328"></rect><rect x="1372" y="484" width="14" height="328"></rect>
  </g>

  
  <g fill="none" stroke-linejoin="round">
    <path d="M1630 812V847Q1630 859 1618 859H188Q176 859 176 847V772Q176 762 186 762H206" stroke="#C41230" stroke-width="6" fill="none"></path>
    <path data-flow="fwd" d="M1630 812V847Q1630 859 1618 859H188Q176 859 176 847V772Q176 762 186 762H206" fill="none" stroke="rgba(255,255,255,.85)" stroke-width="3.3" stroke-linecap="round" stroke-linejoin="round" stroke-dasharray="8 64"></path>
    <path d="M1644 812V835Q1644 847 1632 847H202Q190 847 190 835V802Q190 792 200 792H206" stroke="#2F5BFF" stroke-width="6" fill="none"></path>
    <path data-flow="back" d="M1644 812V835Q1644 847 1632 847H202Q190 847 190 835V802Q190 792 200 792H206" fill="none" stroke="rgba(255,255,255,.85)" stroke-width="3.3" stroke-linecap="round" stroke-linejoin="round" stroke-dasharray="8 64"></path>
    <path d="M1674 812V819Q1674 827 1666 827H1010" stroke="#C41230" stroke-width="4" fill="none"></path>
    <path data-flow="fwd" d="M1674 812V819Q1674 827 1666 827H1010" fill="none" stroke="rgba(255,255,255,.85)" stroke-width="2.2" stroke-linecap="round" stroke-linejoin="round" stroke-dasharray="8 64"></path>
    <path d="M1330 827V704M1010 827V704" stroke="#C41230" stroke-width="4" fill="none"></path>
    <path data-flow="fwd" d="M1330 827V704M1010 827V704" fill="none" stroke="rgba(255,255,255,.85)" stroke-width="2.2" stroke-linecap="round" stroke-linejoin="round" stroke-dasharray="8 64"></path>
    <path d="M1660 812V825Q1660 835 1650 835H1024" stroke="#2F5BFF" stroke-width="4" fill="none"></path>
    <path data-flow="fwd" d="M1660 812V825Q1660 835 1650 835H1024" fill="none" stroke="rgba(255,255,255,.85)" stroke-width="2.2" stroke-linecap="round" stroke-linejoin="round" stroke-dasharray="8 64"></path>
    <path d="M1344 835V704M1024 835V704" stroke="#2F5BFF" stroke-width="4" fill="none"></path>
    <path data-flow="fwd" d="M1344 835V704M1024 835V704" fill="none" stroke="rgba(255,255,255,.85)" stroke-width="2.2" stroke-linecap="round" stroke-linejoin="round" stroke-dasharray="8 64"></path>
    <path d="M1897 760H1710" stroke="#2F5BFF" stroke-width="4" fill="none"></path>
    <path data-flow="fwd" d="M1897 760H1710" fill="none" stroke="rgba(255,255,255,.85)" stroke-width="2.2" stroke-linecap="round" stroke-linejoin="round" stroke-dasharray="8 64"></path>
  </g>

  
  <g fill="none" stroke-width="16" stroke-linejoin="round">
    
    <path d="M940 500V450Q940 430 960 430H1615Q1635 430 1635 450V546" stroke="#F4905F"></path>
    <path data-flow="fwd" d="M940 500V450Q940 430 960 430H1615Q1635 430 1635 450V546" fill="none" stroke="rgba(255,255,255,.85)" stroke-width="8.8" stroke-linecap="round" stroke-linejoin="round" stroke-dasharray="8 64"></path>
    <path d="M1253 500V430M1481 500V430" stroke="#F4905F"></path>
    <path data-flow="fwd" d="M1253 500V430M1481 500V430" fill="none" stroke="rgba(255,255,255,.85)" stroke-width="8.8" stroke-linecap="round" stroke-linejoin="round" stroke-dasharray="8 64"></path>
    
    <path d="M1745 546V390Q1745 370 1725 370H482Q462 370 462 390V484" stroke="#C41230"></path>
    <path data-flow="fwd" d="M1745 546V390Q1745 370 1725 370H482Q462 370 462 390V484" fill="none" stroke="rgba(255,255,255,.85)" stroke-width="8.8" stroke-linecap="round" stroke-linejoin="round" stroke-dasharray="8 64"></path>
    
    <path d="M2000 400H1810Q1790 400 1790 420V546" stroke="#2F5BFF"></path>
    <path data-flow="fwd" d="M2000 400H1810Q1790 400 1790 420V546" fill="none" stroke="rgba(255,255,255,.85)" stroke-width="8.8" stroke-linecap="round" stroke-linejoin="round" stroke-dasharray="8 64"></path>
  </g>

  
  <path d="M100 358 1008 138 1916 358" fill="none" stroke="#002656" stroke-width="34" stroke-linejoin="miter"></path>

  
  <path d="M1695 546V250" fill="none" stroke="#5B9BD5" stroke-width="16"></path>
  <path data-flow="fwd" d="M1695 546V250" fill="none" stroke="rgba(255,255,255,.85)" stroke-width="8.8" stroke-linecap="round" stroke-linejoin="round" stroke-dasharray="8 64"></path>

  
  <use href="#pijl-in" transform="translate(940 500)" color="#F4905F"></use>
  <use href="#pijl-in" transform="translate(1253 500)" color="#F4905F"></use>
  <use href="#pijl-in" transform="translate(1481 500)" color="#F4905F"></use>
  <use href="#pijl-uit" transform="translate(462 484)" color="#C41230"></use>
  <use href="#pijl-uit" transform="translate(1695 250) rotate(180)" color="#5B9BD5"></use>
  <use href="#pijl-in" transform="translate(2000 400) rotate(-90)" color="#2F5BFF"></use>

  
  <rect x="121" y="520" width="28" height="170" fill="#E4E8DC"></rect>
  <rect x="1000" y="690" width="34" height="16" rx="3" fill="#91877A"></rect>
  <path d="M1017 692V664Q1017 648 1003 648Q989 648 989 662" fill="none" stroke="#91877A" stroke-width="6"></path>
  <rect x="1320" y="690" width="34" height="16" rx="3" fill="#91877A"></rect>
  <path d="M1337 692V626Q1337 608 1319 608H1300V618" fill="none" stroke="#91877A" stroke-width="6"></path>
  <path d="M1292 616H1308L1318 630H1282Z" fill="#91877A"></path>
  <path d="M1288 638V682M1300 638V682M1312 638V682" stroke="#2F5BFF" stroke-width="3" stroke-dasharray="7 8" stroke-linecap="round"></path>
  <rect x="206" y="742" width="120" height="60" rx="6" fill="#FFFFFF" stroke="#91877A" stroke-width="4"></rect>
  <path d="M226 752V792M246 752V792M266 752V792M286 752V792M306 752V792" stroke="#91877A" stroke-width="2"></path>
  <g fill="none" stroke="#C41230" stroke-width="6" stroke-linecap="round">
    <path d="M224 724c-14-15-14-30 0-45s14-30 0-45"></path>
    <path d="M266 724c-14-15-14-30 0-45s14-30 0-45"></path>
    <path d="M308 724c-14-15-14-30 0-45s14-30 0-45"></path>
  </g>
  <g fill="#91877A">
    <rect x="1624" y="536" width="22" height="10"></rect><rect x="1684" y="536" width="22" height="10"></rect>
    <rect x="1734" y="536" width="22" height="10"></rect><rect x="1779" y="536" width="22" height="10"></rect>
  </g>
  <rect x="1620" y="546" width="90" height="266" rx="3" fill="#FFFFFF" stroke="#002656" stroke-width="4" stroke-linejoin="round"></rect>
  <path d="M1620 618H1710" stroke="#002656" stroke-width="4"></path>
  <circle cx="1665" cy="648" r="6" fill="#2F5BFF"></circle>
  <text x="1665" y="738" font-size="30" font-weight="500" fill="#002656" text-anchor="middle">QE</text>
  <g data-hot="tb" style="cursor:pointer">
    <rect x="1598" y="522" width="230" height="320" rx="10" fill="rgba(49,100,253,0)" stroke="#3164FD" stroke-width="3"></rect>
    <rect x="1598" y="850" width="186" height="40" rx="8" fill="#3164FD"></rect>
    <text x="1691" y="876" font-size="18" font-weight="600" fill="#FFFFFF" text-anchor="middle">Werkingsprincipe</text>
  </g>
  <rect x="1722" y="546" width="92" height="74" rx="3" fill="#FFFFFF" stroke="#002656" stroke-width="4" stroke-linejoin="round"></rect>
  <text x="1768" y="592" font-size="26" font-weight="500" fill="#002656" text-anchor="middle">QS</text>

  
  <rect x="700" y="556" width="30" height="40" rx="3" fill="#FFFFFF" stroke="#002656" stroke-width="4"></rect>
  <circle cx="715" cy="570" r="4" fill="#2F5BFF"></circle>
  <text x="744" y="582" font-size="20" fill="#002656">QT</text>
  <g fill="#91877A" font-size="18" letter-spacing="3" text-anchor="middle">
    <text x="462" y="778">SLAAPKAMER</text><text x="830" y="778">WOONKAMER EN KEUKEN</text>
    <text x="1240" y="778">BADKAMER</text><text x="1496" y="778">TECHNIEK</text>
  </g>
  <g fill="#002656" font-size="20">
    <text x="344" y="690">Verwarming</text>
    <text x="978" y="704" text-anchor="end">Tapwater</text>
    <text x="1268" y="728" text-anchor="end">Douche</text>
  <text x="1786" y="748" font-size="20" fill="#002656" text-anchor="middle">Koud water</text>
    <text x="940" y="608" text-anchor="middle">Afzuiging binnenlucht</text>
    <text x="462" y="608" text-anchor="middle">Verwarmde lucht</text>
    <text x="2030" y="340" text-anchor="middle">Buitenlucht</text>
    <text x="1772" y="216">Afvoerlucht</text>
  </g>
  <g fill="#91877A" font-size="17" letter-spacing="2.5">
    <path d="M135 940h56" stroke="#C41230" stroke-width="16"></path><text x="208" y="946">TOEVOER VERWARMDE LUCHT</text>
    <path d="M700 940h56" stroke="#F4905F" stroke-width="16"></path><text x="773" y="946">AFZUIGING BINNENLUCHT</text>
    <path d="M1200 940h56" stroke="#2F5BFF" stroke-width="16"></path><text x="1273" y="946">BUITENLUCHT</text>
    <path d="M1560 940h56" stroke="#5B9BD5" stroke-width="16"></path><text x="1633" y="946">AFVOERLUCHT</text>
    <path d="M135 990h56" stroke="#C41230" stroke-width="6"></path><text x="208" y="996">VERWARMING AANVOER</text>
    <path d="M560 990h56" stroke="#2F5BFF" stroke-width="6"></path><text x="633" y="996">VERWARMING RETOUR</text>
    <path d="M985 990h56" stroke="#C41230" stroke-width="4"></path><text x="1058" y="996">TAPWATER WARM</text>
    <path d="M1410 990h56" stroke="#2F5BFF" stroke-width="4"></path><text x="1483" y="996">TAPWATER KOUD</text>
  </g>
</svg>